<svg xmlns="http://www.w3.org/2000/svg" xmlns:xlink="http://www.w3.org/1999/xlink" width="427.27" height="607.513" viewBox="0 0 427.27 607.513"><defs><linearGradient id="a" y1="0.5" x2="1" y2="0.5" gradientUnits="objectBoundingBox"><stop offset="0.41" stop-color="#fff"/><stop offset="1" stop-color="#fff" stop-opacity="0"/></linearGradient><linearGradient id="b" y1="0.5" x2="1" y2="0.5" gradientUnits="objectBoundingBox"><stop offset="0.31" stop-color="#fff"/><stop offset="1" stop-color="#fff" stop-opacity="0"/></linearGradient></defs><g transform="translate(0.001 0.007)"><path d="M626.76,452.035s-53.1-270.36,73.15-322.621S783.553,18,856.453,24.881s114.169,99.171,125.173,185.079S1035.039,498.038,964.55,521.1C879.6,548.884,868.066,635.784,794.506,631.708,651.911,623.87,626.76,452.035,626.76,452.035Z" transform="translate(-605.038 -24.34)" fill="#f8f8ff"/><path d="M613.9,616.289l377.536-3.2s-128.321,4.888-129.569,46.534-16.239,77.418-72.434,81.692-94.162-64.3-166.1-63.911C574.884,677.654,613.9,616.289,613.9,616.289Z" transform="translate(-599.05 -236.401)" fill="#3fbc95"/><path d="M622.26,543.576l377.536-3.2S931.278,461.2,874.252,477.407c-40.308,11.446-20.263-61.569-76.458-65.9s-5.349,40.948-77.29,40.583C672.057,451.833,622.26,543.576,622.26,543.576Z" transform="translate(-607.41 -163.688)" fill="url(#a)"/><path d="M887.858,674.248h40.468s-3.935-14.613-16.3-14.076-12.368,7.038-12.368,7.038S886.175,666.378,887.858,674.248Z" transform="translate(-703.022 -253.354)" fill="#41a18e"/><path d="M941.53,634.826h58.453s-1.126-9.559-7.87-9.559-6.181-22.477-21.357-23.033S946.028,608.971,941.53,634.826Z" transform="translate(-722.406 -232.48)" fill="#41a18e"/><path d="M133.306,345.33l2.847,4.319L120.58,504.311h88.832L192.1,349.342l2.956-4.012Z" transform="translate(-43.431 -124.385)" fill="#21244f"/><path d="M202.066,384.661H141.22l.422-4.191H201.6Z" transform="translate(-50.866 -137.042)" fill="#3fa5bc"/><path d="M1070.633,136.144h60.4c9.706,0,15.24-11.363,9-18.8-3.647-4.344-10.314-7.595-22.253-7.128,0,0-16.674-31.671-40.046-.045,0,0-19.194-1.919-20.7,10.416a1,1,0,0,1-.045.365,13.718,13.718,0,0,0,13.647,15.189Z" transform="translate(-763.963 -50.2)" fill="#e9edfb"/><path d="M635.391,253.072h68.9c11.069,0,17.384-12.969,10.237-21.447-4.165-4.952-11.766-8.663-25.388-8.126,0,0-19.022-36.137-45.683-.051,0,0-21.933-2.169-23.609,11.881,0,.141-.038.275-.051.416a15.644,15.644,0,0,0,15.592,17.326Z" transform="translate(-606.491 -90.286)" fill="#e9edfb"/><path d="M630.981,240.237h49.528c7.956,0,12.5-9.322,7.359-15.416-2.994-3.56-8.458-6.227-18.249-5.841,0,0-13.673-25.976-32.837-.037,0,0-15.766-1.559-16.971,8.54,0,.1-.028.2-.037.3a11.245,11.245,0,0,0,11.208,12.454Z" transform="translate(-509.358 -141.431)" fill="#dfe6ff"/><path d="M152.23,317.175l.333-20.525h47.666v19.713Z" transform="translate(-54.831 -106.851)" fill="#111"/><path d="M204.658,454.961H135.27l.512-4.191h68.339Z" transform="translate(-48.723 -162.363)" fill="#3fa5bc"/><path d="M207.331,532.921H126.42l.422-4.191h80.022Z" transform="translate(-45.535 -190.443)" fill="#3fa5bc"/><path d="M138.053,337.982l-.448-6.84-3.845-3.6v-2.61h72v2.642l-4.12,2.873-1.83,7.537Z" transform="translate(-48.179 -117.037)" fill="#3fa5bc"/><path d="M784.57,338.708h5.8v-5.215s-2.6-4.344-5.8,0Z" transform="translate(-665.872 -134.999)" fill="#fff"/><rect width="8.657" height="7.819" transform="translate(86.221 201.245)" fill="none" stroke="#1c8a6c" stroke-miterlimit="10" stroke-width="2"/><rect width="8.657" height="7.819" transform="translate(95.179 201.245)" fill="none" stroke="#1c8a6c" stroke-miterlimit="10" stroke-width="2"/><rect width="8.657" height="7.819" transform="translate(104.136 201.245)" fill="none" stroke="#1c8a6c" stroke-miterlimit="10" stroke-width="2"/><rect width="8.657" height="7.819" transform="translate(113.093 201.245)" fill="none" stroke="#1c8a6c" stroke-miterlimit="10" stroke-width="2"/><rect width="8.657" height="7.819" transform="translate(121.411 201.245)" fill="none" stroke="#1c8a6c" stroke-miterlimit="10" stroke-width="2"/><rect width="8.657" height="7.819" transform="translate(130.368 201.245)" fill="none" stroke="#1c8a6c" stroke-miterlimit="10" stroke-width="2"/><rect width="8.657" height="7.819" transform="translate(139.326 201.245)" fill="none" stroke="#1c8a6c" stroke-miterlimit="10" stroke-width="2"/><path d="M0,0H8.657V7.819H0Z" transform="translate(148.283 201.245)" fill="none" stroke="#1c8a6c" stroke-width="2"/><path d="M748.972,301.436l-2.227-.64c-.64-.262-1.369-1.28-.876-1.734l23.417-22.246a.94.94,0,0,0,.141-1.209c-.531-.755-1-2.035,1.2-2.649,3.244-.909,1.5-6.1,2.163-6.1s-.211,4.152,1.081,5.189,4.012,1.363,2.38,3.653a.934.934,0,0,0,.134,1.228l23.392,21.754a.953.953,0,0,1-.179,1.523l-2.1,1.19a.979.979,0,0,1-.467.122H749.605A1.279,1.279,0,0,1,748.972,301.436Z" transform="translate(-651.874 -111.694)" fill="#1c8a6c"/><path d="M1154.7,509.515l-.051-133.632s-64.231-5.08-54.736-45.312c6.251-26.495,27.391-28.581,26.872-42.548-.365-10.1,8.81-51.416,36.533-28.9,21.9,17.78,11.613,32.451,22.925,34.55,11.587,2.137,25.721,21.619,17.864,33.046s.889,11.856.889,17.569,4.645,22.323-18.926,26.61-28.152,5.656-28.152,5.656l1.984,132.979Z" transform="translate(-779.108 -106.523)" fill="#41a18e"/><path d="M1109.573,533.528l.064-113.107s45.638-4.3,38.894-38.357c-4.44-22.438-19.463-24.2-19.1-36.028.262-8.548-6.258-43.507-25.957-24.467-15.567,15.055-8.254,27.474-16.29,29.233-8.234,1.811-18.273,18.305-12.694,27.979s-.64,10.039-.64,14.876-3.3,18.9,13.436,22.534,19.994,4.786,19.994,4.786L1106,533.585Z" transform="translate(-769.716 -129.384)" fill="#41a18e"/><path d="M1143.192,589.1V521.854s-22.144-2.559-18.868-22.854c2.15-13.366,9.437-14.415,9.265-21.466-.128-5.119,3.033-25.932,12.592-14.575,7.55,8.957,4.005,16.367,7.9,17.416,4,1.081,8.868,10.909,6.161,16.674s.307,5.976.307,8.861,1.6,11.261-6.526,13.436-8.356,2.194-8.356,2.194l.134,67.392Z" transform="translate(-788.127 -181.122)" fill="#41a18e"/><path d="M120.58,593.81l141.975,22.419L209.412,593.81" transform="translate(-43.431 -213.883)" fill="url(#b)"/></g></svg>